<svg width="63" height="61" viewBox="0 0 63 61" xmlns="http://www.w3.org/2000/svg">
    <g fill="#000" fill-rule="nonzero">
        <path d="M18.859 11.828a7.032 7.032 0 0 1-14.06 0 7.03 7.03 0 0 1 7.03-7.029 7.027 7.027 0 0 1 7.03 7.029m-18.86 0c0 6.534 5.297 11.828 11.828 11.828 6.53 0 11.828-5.294 11.828-11.828C23.655 5.295 18.358 0 11.827 0 5.297 0-.001 5.295-.001 11.828M4.997 51.271v9.068H.332V44.404H3.52l5.62 5.454c.327-3.286 3.055-5.65 6.604-5.65 4.634 0 7.918 3.548 7.918 8.478 0 4.569-2.957 8.018-7.132 8.314v-4.862c1.282-.262 2.398-1.446 2.398-3.449 0-2.002-1.378-3.483-3.318-3.483-2.76 0-3.714 3.156-2.76 6.474H9.728l-4.73-4.403v-.006zM15.575 30.474c-1.97 0-3.483 1.544-3.483 3.55 0 2.004 1.512 3.45 3.483 3.45 1.97 0 3.449-1.543 3.449-3.482 0-1.94-1.512-3.515-3.449-3.515m.034-4.73c4.403 0 8.049 3.745 8.049 8.248 0 4.502-3.649 8.248-8.049 8.248-1.512 0-3.58-.593-5.585-1.84L.332 34.39v-5.553l7.656 4.861c-.032-.196-.032-.393-.032-.592 0-4.207 3.253-7.36 7.656-7.36M30.87.328l9.364 13.405V.328h4.861v23h-4.072l-9.43-13.405v13.406h-4.865V.328zM48.906 23.329h14.095v-4.666h-9.233v-4.861h8.213V9.134h-8.213V4.996H63V.33H48.906z"/>
    </g>
</svg>
